# 3ds Max Wavefront OBJ Exporter v0.97b - (c)2007 guruware
# File Created: 20.05.2019 20:32:11

mtllib Catapult.mtl

#
# object Box002
#

v  -0.505120 -0.488377 0.000000
v  -0.505120 0.478262 0.000000
v  0.479802 0.478262 0.000000
v  0.479802 -0.488377 0.000000
v  -0.031699 1.272225 0.000000
v  -0.031699 2.066188 0.000000
v  0.036457 2.066188 0.000000
v  0.036457 1.272225 0.000000
v  -0.031699 2.860151 0.000000
v  0.036457 2.860151 0.000000
v  -0.505120 -0.488377 0.075116
v  0.479802 -0.488377 0.075116
v  0.479802 0.478262 0.075116
v  -0.505120 0.478262 0.075116
v  -0.031699 1.272225 0.075116
v  0.036457 1.272225 0.075116
v  0.036457 2.066188 0.075116
v  -0.031699 2.066188 0.075116
v  0.036457 2.860151 0.075116
v  -0.031699 2.860151 0.075116
v  0.430494 0.507202 0.075116
v  -0.454168 0.507202 0.075116
v  0.019471 1.243284 0.075116
v  -0.015260 1.243284 0.075116
# 24 vertices

vn -0.577350 -0.577350 -0.577350
vn -0.627966 0.375206 -0.681820
vn 0.626666 0.372441 -0.684527
vn 0.577350 -0.577350 -0.577350
vn -0.546436 -0.338138 -0.766205
vn -0.707107 0.000000 -0.707107
vn 0.707107 0.000000 -0.707107
vn 0.549118 -0.337484 -0.764574
vn -0.577350 0.577350 -0.577350
vn 0.577350 0.577350 -0.577350
vn -0.577350 -0.577350 0.577350
vn 0.577350 -0.577350 0.577350
vn 0.731632 0.190431 0.654562
vn -0.731047 0.201409 0.651923
vn -0.612723 0.168810 0.772058
vn 0.619291 0.161191 0.768437
vn 0.707107 0.000000 0.707107
vn -0.707107 0.000000 0.707107
vn 0.577350 0.577350 0.577350
vn -0.577350 0.577350 0.577350
vn -0.410844 0.241143 0.879237
vn 0.407051 0.231206 0.883659
vn -0.354129 -0.603342 0.714543
vn 0.347751 -0.612235 0.710097
# 24 vertex normals

vt 1.000000 0.000000 0.000000
vt 1.000000 0.250000 0.000000
vt 0.000000 0.250000 0.000000
vt 0.000000 0.000000 0.000000
vt 1.000000 0.500000 0.000000
vt 1.000000 0.750000 0.000000
vt 0.000000 0.750000 0.000000
vt 0.000000 0.500000 0.000000
vt 1.000000 1.000000 0.000000
vt 0.000000 1.000000 0.000000
vt 0.250000 0.000000 0.000000
vt 0.250000 1.000000 0.000000
vt 0.500000 0.000000 0.000000
vt 0.500000 1.000000 0.000000
vt 0.750000 0.000000 0.000000
vt 0.750000 1.000000 0.000000
# 16 texture coords

o Box002
g Box002
usemtl wire_028149177
s 2
f 1/1/1 2/2/2 3/3/3 4/4/4 
f 5/5/5 6/6/6 7/7/7 8/8/8 
f 6/6/6 9/9/9 10/10/10 7/7/7 
s 4
f 11/4/11 12/1/12 13/2/13 14/3/14 
f 15/8/15 16/5/16 17/6/17 18/7/18 
f 18/7/18 17/6/17 19/9/19 20/10/20 
s 8
f 1/4/1 4/1/4 12/9/12 11/10/11 
s 16
f 4/4/4 3/11/3 13/12/13 12/10/12 
f 3/11/3 8/13/8 16/14/16 13/12/13 
f 8/13/8 7/15/7 17/16/17 16/14/16 
f 7/15/7 10/1/10 19/9/19 17/16/17 
s 32
f 10/4/10 9/1/9 20/9/20 19/10/19 
s 64
f 9/4/9 6/11/6 18/12/18 20/10/20 
f 6/11/6 5/13/5 15/14/15 18/12/18 
f 5/13/5 2/15/2 14/16/14 15/14/15 
f 2/15/2 1/1/1 11/9/11 14/16/14 
s off
f 14/3/14 13/2/13 21/2/21 22/3/22 
f 13/2/13 16/5/16 23/5/23 21/2/21 
f 16/5/16 15/8/15 24/8/24 23/5/23 
f 15/8/15 14/3/14 22/3/22 24/8/24 
s 1
f 21/2/21 23/5/23 8/13/8 3/11/3 
s 4
f 23/5/23 24/8/24 5/5/5 8/8/8 
s 1
f 24/8/24 22/3/22 2/15/2 5/13/5 
s 4
f 22/3/22 21/2/21 3/3/3 2/2/2 
# 24 polygons

