# 3ds Max Wavefront OBJ Exporter v0.97b - (c)2007 guruware
# File Created: 19.05.2019 11:00:12

mtllib Key.mtl

#
# object Box001
#

v  -0.282453 -0.148410 0.000000
v  -0.282453 0.176028 0.000000
v  -0.029968 0.176028 0.000000
v  -0.029968 -0.148410 0.000000
v  -0.029968 -0.148410 -0.983983
v  -0.029968 0.176028 -0.983983
v  0.222517 0.176028 -0.983983
v  0.222517 -0.148410 -0.983983
v  0.222517 -0.148410 0.000000
v  0.222517 0.176028 0.000000
v  0.475003 0.176028 0.000000
v  0.475003 -0.148410 0.000000
v  -0.282453 -0.148410 0.639394
v  -0.029968 -0.148410 0.639394
v  -0.029968 0.176028 0.639394
v  -0.282453 0.176028 0.639394
v  0.222517 -0.148410 0.639394
v  0.222517 0.176028 0.639394
v  0.475003 -0.148410 0.639394
v  0.475003 0.176028 0.639394
v  -0.029968 -0.148410 0.213131
v  -0.282453 -0.148410 0.213131
v  0.222517 -0.148410 0.213131
v  0.475003 -0.148410 0.213131
v  -0.029968 -0.148410 0.426263
v  -0.282453 -0.148410 0.426263
v  0.475003 -0.148410 0.426263
v  0.222517 -0.148410 0.426263
v  0.475003 0.176028 0.213131
v  0.475003 0.176028 0.426263
v  0.222517 0.176028 0.213131
v  -0.029968 0.176028 0.213131
v  -0.282453 0.176028 0.213131
v  0.222517 0.176028 0.426263
v  -0.282453 0.176028 0.426263
v  -0.029968 0.176028 0.426263
v  -0.029968 0.176028 -0.332818
v  -0.029968 -0.148410 -0.332818
v  0.222517 0.176028 -0.332818
v  0.222517 -0.148410 -0.332818
v  -0.029968 0.176028 -0.520932
v  -0.029968 -0.148410 -0.520932
v  0.222517 0.176028 -0.520932
v  0.482983 0.176028 -0.332818
v  0.482983 -0.148410 -0.332818
v  0.482983 -0.148410 -0.520932
v  0.482983 0.176028 -0.520932
v  0.222517 -0.148410 -0.520932
v  -0.029968 0.176028 -0.810339
v  -0.029968 -0.148410 -0.810339
v  0.222517 0.176028 -0.810339
v  0.222517 -0.148410 -0.810339
v  0.482984 0.176028 -0.810339
v  0.482984 -0.148410 -0.810339
v  0.482984 -0.148410 -0.983983
v  0.482984 0.176028 -0.983983
# 56 vertices

vn -0.577350 -0.577350 -0.577350
vn -0.577350 0.577350 -0.577350
vn -0.301511 0.904534 -0.301511
vn -0.301511 -0.904534 -0.301511
vn 0.000000 0.707107 -0.707107
vn 0.000000 -0.707107 -0.707107
vn 0.301511 -0.904534 -0.301511
vn 0.301511 0.904534 -0.301511
vn 0.577350 0.577350 -0.577350
vn 0.577350 -0.577350 -0.577350
vn -0.577350 -0.577350 0.577350
vn 0.000000 -0.707107 0.707107
vn 0.000000 0.707107 0.707107
vn -0.577350 0.577350 0.577350
vn 0.577350 -0.577350 0.577350
vn 0.577350 0.577350 0.577350
vn 0.301511 -0.904534 0.301511
vn -0.707107 -0.707107 0.000000
vn -0.301511 -0.904534 0.301511
vn 0.707107 -0.707107 0.000000
vn 0.707107 0.707107 0.000000
vn -0.301511 0.904534 0.301511
vn 0.301511 0.904534 0.301511
vn -0.707107 0.707107 0.000000
# 24 vertex normals

vt 1.000000 0.000000 0.000000
vt 1.000000 1.000000 0.000000
vt 0.666667 1.000000 0.000000
vt 0.666667 0.000000 0.000000
vt 0.333333 1.000000 0.000000
vt 0.333333 0.000000 0.000000
vt -0.000000 1.000000 0.000000
vt -0.000000 0.000000 0.000000
vt 0.000000 0.000000 0.000000
vt 0.000000 1.000000 0.000000
vt 0.333333 0.333333 0.000000
vt 0.000000 0.333333 0.000000
vt 0.666667 0.333333 0.000000
vt 1.000000 0.333333 0.000000
vt 0.333333 0.666667 0.000000
vt 0.000000 0.666667 0.000000
vt 1.000000 0.666667 0.000000
vt 0.666667 0.666667 0.000000
# 18 texture coords

o Box001
g Box001
usemtl wire_153228153
s 2
f 1/1/1 2/2/2 3/3/3 4/4/4 
f 5/4/1 6/3/2 7/5/5 8/6/6 
f 9/6/7 10/5/8 11/7/9 12/8/10 
s 4
f 13/9/11 14/6/12 15/5/13 16/10/14 
f 14/6/12 17/4/12 18/3/13 15/5/13 
f 17/4/12 19/1/15 20/2/16 18/3/13 
s 8
f 1/9/1 4/6/4 21/11/17 22/12/18 
f 4/6/4 9/4/7 23/13/19 21/11/17 
f 9/4/7 12/1/10 24/14/20 23/13/19 
f 22/12/18 21/11/17 25/15/7 26/16/18 
f 23/13/19 24/14/20 27/17/20 28/18/4 
f 26/16/18 25/15/7 14/5/12 13/10/11 
f 25/15/7 28/18/4 17/3/12 14/5/12 
f 28/18/4 27/17/20 19/2/15 17/3/12 
s 16
f 12/9/10 11/1/9 29/14/21 24/12/20 
f 24/12/20 29/14/21 30/17/21 27/16/20 
f 27/16/20 30/17/21 20/2/16 19/10/15 
s 32
f 11/9/9 10/6/8 31/11/22 29/12/21 
f 10/6/8 3/4/3 32/13/23 31/11/22 
f 3/4/3 2/1/2 33/14/24 32/13/23 
f 29/12/21 31/11/22 34/15/3 30/16/21 
f 32/13/23 33/14/24 35/17/24 36/18/8 
f 30/16/21 34/15/3 18/5/13 20/10/16 
f 34/15/3 36/18/8 15/3/13 18/5/13 
f 36/18/8 35/17/24 16/2/14 15/3/13 
s 64
f 2/9/2 1/1/1 22/14/18 33/12/24 
f 33/12/24 22/14/18 26/17/18 35/16/24 
f 35/16/24 26/17/18 13/2/11 16/10/14 
s off
f 4/4/4 3/3/3 37/3/24 38/4/18 
f 3/3/3 10/5/8 39/5/23 37/3/24 
f 10/5/8 9/6/7 40/6/17 39/5/23 
f 9/6/7 4/4/4 38/4/18 40/6/17 
f 38/4/18 37/3/24 41/3/24 42/4/18 
f 37/3/24 39/5/23 43/5/8 41/3/24 
f 44/5/16 45/6/15 46/6/10 47/5/9 
f 40/6/17 38/4/18 42/4/18 48/6/7 
f 42/4/18 41/3/24 49/3/24 50/4/18 
f 41/3/24 43/5/8 51/5/23 49/3/24 
f 43/5/8 48/6/7 52/6/17 51/5/23 
f 48/6/7 42/4/18 50/4/18 52/6/17 
f 50/4/18 49/3/24 6/3/2 5/4/1 
f 49/3/24 51/5/23 7/5/5 6/3/2 
f 53/5/16 54/6/15 55/6/10 56/5/9 
f 52/6/17 50/4/18 5/4/1 8/6/6 
f 39/5/23 40/6/17 45/6/15 44/5/16 
f 40/6/17 48/6/7 46/6/10 45/6/15 
f 48/6/7 43/5/8 47/5/9 46/6/10 
f 43/5/8 39/5/23 44/5/16 47/5/9 
f 51/5/23 52/6/17 54/6/15 53/5/16 
f 52/6/17 8/6/6 55/6/10 54/6/15 
f 8/6/6 7/5/5 56/5/9 55/6/10 
f 7/5/5 51/5/23 53/5/16 56/5/9 
f 31/11/22 32/13/23 21/11/17 23/13/19 
f 32/13/23 36/18/8 25/15/7 21/11/17 
f 36/18/8 34/15/3 28/18/4 25/15/7 
f 23/13/19 28/18/4 34/15/3 31/11/22 
# 56 polygons

